<svg xmlns="http://www.w3.org/2000/svg" xmlns:xlink="http://www.w3.org/1999/xlink" contentStyleType="text/css" data-diagram-type="DESCRIPTION" height="1190px" preserveAspectRatio="none" style="width:1454px;height:1190px;background:#FCF8FF;" version="1.1" viewBox="0 0 1454 1190" width="1454px" zoomAndPan="magnify"><?plantuml 1.2026.6?><defs/><g><rect fill="#FCF8FF" height="1190" style="stroke:none;stroke-width:1;" width="1454" x="0" y="0"/><g class="title" data-source-line="14"><text fill="#000000" font-family="Inter" font-size="22" font-weight="700" lengthAdjust="spacing" textLength="414.0791" x="519.0318" y="35.4209">YoUSAC &#8212; Vista de Componentes</text></g><!--cluster Cliente--><g class="cluster" data-qualified-name="Cliente" data-source-line="18" id="ent0002"><path d="M1098.53,197.2094 L1155.0515,197.2094 A3.75,3.75 0 0 1 1157.5515,199.7094 L1164.5515,219.5063 L1233.53,219.5063 A2.5,2.5 0 0 1 1236.03,222.0063 L1236.03,314.5994 A2.5,2.5 0 0 1 1233.53,317.0994 L1098.53,317.0994 A2.5,2.5 0 0 1 1096.03,314.5994 L1096.03,199.7094 A2.5,2.5 0 0 1 1098.53,197.2094" fill="#FFFFFF" style="stroke:#777684;stroke-width:1;"/><line style="stroke:#777684;stroke-width:1;" x1="1096.03" x2="1164.5515" y1="219.5063" y2="219.5063"/><text fill="#000000" font-family="Inter" font-size="14" font-weight="700" lengthAdjust="spacing" textLength="55.5215" x="1100.03" y="212.2045">Cliente</text></g><!--cluster Borde ? ?nico punto de entrada--><g class="cluster" data-qualified-name="Borde . .nico punto de entrada" data-source-line="22" id="ent0004"><path d="M737.53,381.0994 L994.0163,381.0994 A3.75,3.75 0 0 1 996.5163,383.5994 L1003.5163,403.3963 L1003.53,403.3963 A2.5,2.5 0 0 1 1006.03,405.8963 L1006.03,498.4894 A2.5,2.5 0 0 1 1003.53,500.9894 L737.53,500.9894 A2.5,2.5 0 0 1 735.03,498.4894 L735.03,383.5994 A2.5,2.5 0 0 1 737.53,381.0994" fill="#FFFFFF" style="stroke:#777684;stroke-width:1;"/><line style="stroke:#777684;stroke-width:1;" x1="735.03" x2="1003.5163" y1="403.3963" y2="403.3963"/><text fill="#000000" font-family="Inter" font-size="14" font-weight="700" lengthAdjust="spacing" textLength="255.4863" x="739.03" y="396.0945">Borde &#8212; &#250;nico punto de entrada</text></g><!--cluster Microservicios ? tr?fico interno solo gRPC--><g class="cluster" data-qualified-name="Microservicios . tr.fico interno solo gRPC" data-source-line="26" id="ent0006"><path d="M511.53,549.9894 L847.156,549.9894 A3.75,3.75 0 0 1 849.656,552.4894 L856.656,572.2863 L1086.53,572.2863 A2.5,2.5 0 0 1 1089.03,574.7863 L1089.03,1004.1594 A2.5,2.5 0 0 1 1086.53,1006.6594 L511.53,1006.6594 A2.5,2.5 0 0 1 509.03,1004.1594 L509.03,552.4894 A2.5,2.5 0 0 1 511.53,549.9894" fill="#FFFFFF" style="stroke:#777684;stroke-width:1;"/><line style="stroke:#777684;stroke-width:1;" x1="509.03" x2="856.656" y1="572.2863" y2="572.2863"/><text fill="#000000" font-family="Inter" font-size="14" font-weight="700" lengthAdjust="spacing" textLength="334.626" x="513.03" y="564.9845">Microservicios &#8212; tr&#225;fico interno solo gRPC</text></g><!--cluster Infraestructura de apoyo--><g class="cluster" data-qualified-name="Infraestructura de apoyo" data-source-line="34" id="ent0012"><path d="M1073.53,1055.6594 L1271.945,1055.6594 A3.75,3.75 0 0 1 1274.445,1058.1594 L1281.445,1077.9563 L1369.53,1077.9563 A2.5,2.5 0 0 1 1372.03,1080.4563 L1372.03,1173.0494 A2.5,2.5 0 0 1 1369.53,1175.5494 L1073.53,1175.5494 A2.5,2.5 0 0 1 1071.03,1173.0494 L1071.03,1058.1594 A2.5,2.5 0 0 1 1073.53,1055.6594" fill="#FFFFFF" style="stroke:#777684;stroke-width:1;"/><line style="stroke:#777684;stroke-width:1;" x1="1071.03" x2="1281.445" y1="1077.9563" y2="1077.9563"/><text fill="#000000" font-family="Inter" font-size="14" font-weight="700" lengthAdjust="spacing" textLength="197.415" x="1075.03" y="1070.6545">Infraestructura de apoyo</text></g><!--cluster pg--><g class="cluster" data-qualified-name="pg" data-source-line="39" id="ent0015"><path d="M467.03,1066.9594 C467.03,1056.9594 754.53,1056.9594 754.53,1056.9594 C754.53,1056.9594 1042.03,1056.9594 1042.03,1066.9594 L1042.03,1149.2494 C1042.03,1159.2494 754.53,1159.2494 754.53,1159.2494 C754.53,1159.2494 467.03,1159.2494 467.03,1149.2494 L467.03,1066.9594" fill="#FFFFFF" style="stroke:#777684;stroke-width:1;"/><path d="M467.03,1066.9594 C467.03,1076.9594 754.53,1076.9594 754.53,1076.9594 C754.53,1076.9594 1042.03,1076.9594 1042.03,1066.9594" fill="none" style="stroke:#777684;stroke-width:1;"/><text fill="#000000" font-family="Inter" font-size="14" font-weight="700" lengthAdjust="spacing" textLength="116.5869" x="696.2365" y="1091.9545">PostgreSQL 16</text></g><!--entity fe--><g class="entity" data-qualified-name="Cliente.fe" data-source-line="19" id="ent0003"><rect fill="#FFFFFF" height="68.8906" rx="2.5" ry="2.5" style="stroke:#06007C;stroke-width:1;" width="108.3066" x="1111.88" y="232.2094"/><text fill="#000000" font-family="Inter" font-size="14" lengthAdjust="spacing" textLength="63.1094" x="1121.88" y="255.2045">Frontend</text><text fill="#000000" font-family="Inter" font-size="14" lengthAdjust="spacing" textLength="88.3066" x="1121.88" y="271.5014">React + Vite</text><text fill="#000000" font-family="Inter" font-size="14" lengthAdjust="spacing" textLength="40.3457" x="1121.88" y="287.7982">:5173</text></g><!--entity gw--><g class="entity" data-qualified-name="Borde . .nico punto de entrada.gw" data-source-line="23" id="ent0005"><rect fill="#FFFFFF" height="68.8906" rx="2.5" ry="2.5" style="stroke:#06007C;stroke-width:1;" width="124.8633" x="863.6" y="416.0994"/><text fill="#000000" font-family="Inter" font-size="14" lengthAdjust="spacing" textLength="88.4434" x="873.6" y="439.0945">API Gateway</text><text fill="#000000" font-family="Inter" font-size="14" lengthAdjust="spacing" textLength="104.8633" x="873.6" y="455.3914">Express &#183; Node</text><text fill="#000000" font-family="Inter" font-size="14" lengthAdjust="spacing" textLength="40.3457" x="873.6" y="471.6882">:8080</text></g><!--entity auth--><g class="entity" data-qualified-name="Microservicios . tr.fico interno solo gRPC.auth" data-source-line="27" id="ent0007"><rect fill="#FFFFFF" height="68.8906" rx="2.5" ry="2.5" style="stroke:#06007C;stroke-width:1;" width="153.1777" x="919.44" y="760.8794"/><text fill="#000000" font-family="Inter" font-size="14" lengthAdjust="spacing" textLength="87.0146" x="929.44" y="783.8745">auth-service</text><text fill="#000000" font-family="Inter" font-size="14" lengthAdjust="spacing" textLength="133.1777" x="929.44" y="800.1714">NestJS &#183; TypeScript</text><text fill="#000000" font-family="Inter" font-size="14" lengthAdjust="spacing" textLength="49.2529" x="929.44" y="816.4682">:50052</text></g><!--entity cat--><g class="entity" data-qualified-name="Microservicios . tr.fico interno solo gRPC.cat" data-source-line="28" id="ent0008"><rect fill="#FFFFFF" height="68.8906" rx="2.5" ry="2.5" style="stroke:#06007C;stroke-width:1;" width="153.1777" x="702.44" y="584.9894"/><text fill="#000000" font-family="Inter" font-size="14" lengthAdjust="spacing" textLength="106.8867" x="712.44" y="607.9845">catalog-service</text><text fill="#000000" font-family="Inter" font-size="14" lengthAdjust="spacing" textLength="133.1777" x="712.44" y="624.2814">NestJS &#183; TypeScript</text><text fill="#000000" font-family="Inter" font-size="14" lengthAdjust="spacing" textLength="49.2529" x="712.44" y="640.5782">:50053</text></g><!--entity rep--><g class="entity" data-qualified-name="Microservicios . tr.fico interno solo gRPC.rep" data-source-line="29" id="ent0009"><rect fill="#FFFFFF" height="68.8906" rx="2.5" ry="2.5" style="stroke:#06007C;stroke-width:1;" width="165.0518" x="525.5" y="760.8794"/><text fill="#000000" font-family="Inter" font-size="14" lengthAdjust="spacing" textLength="145.0518" x="535.5" y="783.8745">reproduction-service</text><text fill="#000000" font-family="Inter" font-size="14" lengthAdjust="spacing" textLength="19.4141" x="535.5" y="800.1714">Go</text><text fill="#000000" font-family="Inter" font-size="14" lengthAdjust="spacing" textLength="49.2529" x="535.5" y="816.4682">:50051</text></g><!--entity ana--><g class="entity" data-qualified-name="Microservicios . tr.fico interno solo gRPC.ana" data-source-line="30" id="ent0010"><rect fill="#FFFFFF" height="68.8906" rx="2.5" ry="2.5" style="stroke:#06007C;stroke-width:1;" width="137.7764" x="528.14" y="584.9894"/><text fill="#000000" font-family="Inter" font-size="14" lengthAdjust="spacing" textLength="117.7764" x="538.14" y="607.9845">analytics-service</text><text fill="#000000" font-family="Inter" font-size="14" lengthAdjust="spacing" textLength="113.4424" x="538.14" y="624.2814">Python &#183; FastAPI</text><text fill="#000000" font-family="Inter" font-size="14" lengthAdjust="spacing" textLength="49.2529" x="538.14" y="640.5782">:50054</text></g><!--entity notif--><g class="entity" data-qualified-name="Microservicios . tr.fico interno solo gRPC.notif" data-source-line="31" id="ent0011"><rect fill="#FFFFFF" height="68.8906" rx="2.5" ry="2.5" style="stroke:#06007C;stroke-width:1;" width="153.9297" x="856.06" y="921.7694"/><text fill="#000000" font-family="Inter" font-size="14" lengthAdjust="spacing" textLength="133.9297" x="866.06" y="944.7645">notification-service</text><text fill="#000000" font-family="Inter" font-size="14" lengthAdjust="spacing" textLength="48.5283" x="866.06" y="961.0614">Python</text><text fill="#000000" font-family="Inter" font-size="14" lengthAdjust="spacing" textLength="49.2529" x="866.06" y="977.3582">:50055</text></g><!--entity media--><g class="entity" data-qualified-name="Infraestructura de apoyo.media" data-source-line="35" id="ent0013"><rect fill="#FFFFFF" height="68.8906" rx="2.5" ry="2.5" style="stroke:#06007C;stroke-width:1;" width="112.9756" x="1243.54" y="1090.6594"/><text fill="#000000" font-family="Inter" font-size="14" lengthAdjust="spacing" textLength="92.9756" x="1253.54" y="1113.6545">media-server</text><text fill="#000000" font-family="Inter" font-size="14" lengthAdjust="spacing" textLength="38.8076" x="1253.54" y="1129.9514">nginx</text><text fill="#000000" font-family="Inter" font-size="14" lengthAdjust="spacing" textLength="40.3457" x="1253.54" y="1146.2482">:8081</text></g><!--entity smtp--><g class="entity" data-qualified-name="Infraestructura de apoyo.smtp" data-source-line="36" id="ent0014"><rect fill="#FFFFFF" height="52.5938" rx="2.5" ry="2.5" style="stroke:#06007C;stroke-width:1;" width="121.165" x="1087.45" y="1098.8094"/><text fill="#000000" font-family="Inter" font-size="14" lengthAdjust="spacing" textLength="101.0488" x="1097.45" y="1121.8045">Servidor SMTP</text><text fill="#000000" font-family="Inter" font-size="14" lengthAdjust="spacing" textLength="101.165" x="1097.45" y="1138.1014">Mailpit / Gmail</text></g><!--entity pgauth--><g class="entity" data-qualified-name="pg.pgauth" data-source-line="40" id="ent0016"><rect fill="#FFFFFF" height="36.2969" rx="2.5" ry="2.5" style="stroke:#06007C;stroke-width:1;" width="132.8818" x="670.59" y="1106.9594"/><text fill="#000000" font-family="Inter" font-size="14" lengthAdjust="spacing" textLength="112.8818" x="680.59" y="1129.9545">yousac_auth_db</text></g><!--entity pgcat--><g class="entity" data-qualified-name="pg.pgcat" data-source-line="41" id="ent0017"><rect fill="#FFFFFF" height="36.2969" rx="2.5" ry="2.5" style="stroke:#06007C;stroke-width:1;" width="152.7539" x="482.65" y="1106.9594"/><text fill="#000000" font-family="Inter" font-size="14" lengthAdjust="spacing" textLength="132.7539" x="492.65" y="1129.9545">yousac_catalog_db</text></g><!--entity pgnotif--><g class="entity" data-qualified-name="pg.pgnotif" data-source-line="42" id="ent0018"><rect fill="#FFFFFF" height="36.2969" rx="2.5" ry="2.5" style="stroke:#06007C;stroke-width:1;" width="187.0908" x="838.48" y="1106.9594"/><text fill="#000000" font-family="Inter" font-size="14" lengthAdjust="spacing" textLength="167.0908" x="848.48" y="1129.9545">yousac_notifications_db</text></g><!--entity user--><g class="entity" data-qualified-name="user" data-source-line="16" id="ent0001"><ellipse cx="1166.0241" cy="65.6094" fill="#FFFFFF" rx="8" ry="8" style="stroke:#000000;stroke-width:1;"/><path d="M1166.0241,73.6094 L1166.0241,100.6094 M1153.0241,81.6094 L1179.0241,81.6094 M1166.0241,100.6094 L1153.0241,115.6094 M1166.0241,100.6094 L1179.0241,115.6094" fill="none" style="stroke:#000000;stroke-width:1;"/><text fill="#000000" font-family="Inter" font-size="14" lengthAdjust="spacing" textLength="53.2041" x="1123.05" y="130.6045">Usuario</text><text fill="#000000" font-family="Inter" font-size="14" lengthAdjust="spacing" textLength="85.9482" x="1123.05" y="146.9014">(navegador)</text></g><!--entity mongo--><g class="entity" data-qualified-name="mongo" data-source-line="44" id="ent0019"><path d="M381,935.4194 C381,925.4194 437.0298,925.4194 437.0298,925.4194 C437.0298,925.4194 493.0596,925.4194 493.0596,935.4194 L493.0596,977.0131 C493.0596,987.0131 437.0298,987.0131 437.0298,987.0131 C437.0298,987.0131 381,987.0131 381,977.0131 L381,935.4194" fill="#FFFFFF" style="stroke:#196584;stroke-width:1;"/><path d="M381,935.4194 C381,945.4194 437.0298,945.4194 437.0298,945.4194 C437.0298,945.4194 493.0596,945.4194 493.0596,935.4194" fill="none" style="stroke:#196584;stroke-width:1;"/><text fill="#000000" font-family="Inter" font-size="14" lengthAdjust="spacing" textLength="80.7119" x="391" y="962.4145">MongoDB 7</text><text fill="#000000" font-family="Inter" font-size="14" lengthAdjust="spacing" textLength="92.0596" x="391" y="978.7114">reproducci&#243;n</text></g><!--entity mysql--><g class="entity" data-qualified-name="mysql" data-source-line="45" id="ent0020"><path d="M193.31,774.5294 C193.31,764.5294 234.0239,764.5294 234.0239,764.5294 C234.0239,764.5294 274.7377,764.5294 274.7377,774.5294 L274.7377,816.1231 C274.7377,826.1231 234.0239,826.1231 234.0239,826.1231 C234.0239,826.1231 193.31,826.1231 193.31,816.1231 L193.31,774.5294" fill="#FFFFFF" style="stroke:#196584;stroke-width:1;"/><path d="M193.31,774.5294 C193.31,784.5294 234.0239,784.5294 234.0239,784.5294 C234.0239,784.5294 274.7377,784.5294 274.7377,774.5294" fill="none" style="stroke:#196584;stroke-width:1;"/><text fill="#000000" font-family="Inter" font-size="14" lengthAdjust="spacing" textLength="61.4277" x="203.31" y="801.5245">MySQL 8</text><text fill="#000000" font-family="Inter" font-size="14" lengthAdjust="spacing" textLength="59.4658" x="203.31" y="817.8214">anal&#237;tica</text></g><!--entity redis--><g class="entity" data-qualified-name="redis" data-source-line="46" id="ent0021"><path d="M83.14,774.5294 C83.14,764.5294 119.0243,764.5294 119.0243,764.5294 C119.0243,764.5294 154.9086,764.5294 154.9086,774.5294 L154.9086,816.1231 C154.9086,826.1231 119.0243,826.1231 119.0243,826.1231 C119.0243,826.1231 83.14,826.1231 83.14,816.1231 L83.14,774.5294" fill="#FFFFFF" style="stroke:#196584;stroke-width:1;"/><path d="M83.14,774.5294 C83.14,784.5294 119.0243,784.5294 119.0243,784.5294 C119.0243,784.5294 154.9086,784.5294 154.9086,774.5294" fill="none" style="stroke:#196584;stroke-width:1;"/><text fill="#000000" font-family="Inter" font-size="14" lengthAdjust="spacing" textLength="51.7686" x="93.14" y="801.5245">Redis 7</text><text fill="#000000" font-family="Inter" font-size="14" lengthAdjust="spacing" textLength="41.46" x="93.14" y="817.8214">cach&#233;</text></g><g class="entity" data-qualified-name="GMN41" data-source-line="76" id="ent0042"><path d="M1023.96,415.2794 L1023.96,446.5394 L988.78,450.5394 L1023.96,454.5394 L1023.96,485.8106 A0,0 0 0 0 1023.96,485.8106 L1248.104,485.8106 A0,0 0 0 0 1248.104,485.8106 L1248.104,425.2794 L1238.104,415.2794 L1023.96,415.2794 A0,0 0 0 0 1023.96,415.2794" fill="#FFFFFF" style="stroke:#000000;stroke-width:1;"/><path d="M1238.104,415.2794 L1238.104,425.2794 L1248.104,425.2794 L1238.104,415.2794" fill="#FFFFFF" style="stroke:#000000;stroke-width:1;"/><text fill="#000000" font-family="Inter" font-size="13" lengthAdjust="spacing" textLength="202.4521" x="1029.96" y="432.3463">Ning&#250;n cliente externo alcanza</text><text fill="#000000" font-family="Inter" font-size="13" lengthAdjust="spacing" textLength="203.144" x="1029.96" y="447.4791">un microservicio directamente.</text><text fill="#000000" font-family="Inter" font-size="13" lengthAdjust="spacing" textLength="171.1265" x="1029.96" y="462.6119">El gateway valida el JWT y</text><text fill="#000000" font-family="Inter" font-size="13" lengthAdjust="spacing" textLength="142.1812" x="1029.96" y="477.7447">traduce REST a gRPC.</text></g><g class="entity" data-qualified-name="GMN44" data-source-line="83" id="ent0045"><path d="M11,928.5094 L11,983.9078 A0,0 0 0 0 11,983.9078 L227.0571,983.9078 A0,0 0 0 0 227.0571,983.9078 L227.0571,938.5094 L217.0571,928.5094 L123.03,928.5094 L119.03,826.5794 L115.03,928.5094 L11,928.5094 A0,0 0 0 0 11,928.5094" fill="#FFFFFF" style="stroke:#000000;stroke-width:1;"/><path d="M217.0571,928.5094 L217.0571,938.5094 L227.0571,938.5094 L217.0571,928.5094" fill="#FFFFFF" style="stroke:#000000;stroke-width:1;"/><text fill="#000000" font-family="Inter" font-size="13" lengthAdjust="spacing" textLength="187.4336" x="17" y="945.5763">Acelerador, no dependencia:</text><text fill="#000000" font-family="Inter" font-size="13" lengthAdjust="spacing" textLength="195.0571" x="17" y="960.7091">si Redis cae, analytics-service</text><text fill="#000000" font-family="Inter" font-size="13" lengthAdjust="spacing" textLength="183.5361" x="17" y="975.8419">degrada a consultar MySQL.</text></g><!--link user to fe--><g class="link" data-entity-1="ent0001" data-entity-2="ent0003" data-link-type="dependency" data-source-line="49" id="lnk22"><path d="M1166.03,150.6194 C1166.03,176.4894 1166.03,203.1794 1166.03,226.7394" fill="none" id="user-to-fe" style="stroke:#06007C;stroke-width:1;"/><polygon fill="#06007C" points="1166.03,231.7394,1170.03,222.7394,1166.03,226.7394,1162.03,222.7394,1166.03,231.7394" style="stroke:#06007C;stroke-width:1;stroke-linejoin:miter;stroke-miterlimit:10;"/></g><!--link fe to gw--><g class="link" data-entity-1="ent0003" data-entity-2="ent0005" data-link-type="dependency" data-source-line="50" id="lnk23"><path d="M1111.38,300.2394 C1079.65,319.9994 1039.46,346.4594 1006.03,373.0994 C989.65,386.1394 976.2821,398.4306 962.2321,412.2706" fill="none" id="fe-to-gw" style="stroke:#06007C;stroke-width:1;"/><polygon fill="#06007C" points="958.67,415.7794,967.8887,412.3132,962.2321,412.2706,962.2746,406.6139,958.67,415.7794" style="stroke:#06007C;stroke-width:1;stroke-linejoin:miter;stroke-miterlimit:10;"/><text fill="#000000" font-family="Inter" font-size="13" lengthAdjust="spacing" textLength="79.5679" x="1088.9869" y="346.1663">REST/HTTPS</text><text fill="#000000" font-family="Inter" font-size="13" lengthAdjust="spacing" textLength="141.6416" x="1057.95" y="361.2991">JWT + Session Cookie</text></g><!--link fe to media--><g class="link" data-entity-1="ent0003" data-entity-2="ent0013" data-link-type="dependency" data-source-line="51" id="lnk24"><path d="M1212.11,301.4694 C1251.22,334.4194 1301.03,388.3894 1301.03,449.5394 C1301.03,449.5394 1301.03,449.5394 1301.03,957.2094 C1301.03,1003.2794 1300.683,1051.5096 1300.393,1085.2196" fill="none" id="fe-to-media" style="stroke:#06007C;stroke-width:1;stroke-dasharray:7,7;"/><polygon fill="#06007C" points="1300.35,1090.2194,1304.4273,1081.2541,1300.393,1085.2196,1296.4276,1081.1853,1300.35,1090.2194" style="stroke:#06007C;stroke-width:1;stroke-linejoin:miter;stroke-miterlimit:10;"/><text fill="#000000" font-family="Inter" font-size="13" lengthAdjust="spacing" textLength="79.1172" x="1330.5278" y="704.4463">HTTP Range</text><text fill="#000000" font-family="Inter" font-size="13" lengthAdjust="spacing" textLength="136.1128" x="1302.03" y="719.5791">(streaming de video)</text></g><!--link gw to auth--><g class="link" data-entity-1="ent0005" data-entity-2="ent0007" data-link-type="dependency" data-source-line="54" id="lnk25"><path d="M948.65,485.2894 C958.49,501.6994 969.11,522.1394 975.03,541.9894 C997.57,617.6094 998.959,706.241 997.689,755.451" fill="none" id="gw-to-auth" style="stroke:#06007C;stroke-width:1;"/><polygon fill="#06007C" points="997.56,760.4494,1001.7909,751.5556,997.689,755.451,993.7935,751.3492,997.56,760.4494" style="stroke:#06007C;stroke-width:1;stroke-linejoin:miter;stroke-miterlimit:10;"/><text fill="#000000" font-family="Inter" font-size="13" lengthAdjust="spacing" textLength="34.2012" x="995.44" y="623.9963">gRPC</text></g><!--link gw to cat--><g class="link" data-entity-1="ent0005" data-entity-2="ent0008" data-link-type="dependency" data-source-line="55" id="lnk26"><path d="M896.28,485.3194 C870.78,514.2694 837.5248,552.0173 812.0348,580.9573" fill="none" id="gw-to-cat" style="stroke:#06007C;stroke-width:1;"/><polygon fill="#06007C" points="808.73,584.7094,817.6803,580.5994,812.0348,580.9573,811.677,575.3117,808.73,584.7094" style="stroke:#06007C;stroke-width:1;stroke-linejoin:miter;stroke-miterlimit:10;"/><text fill="#000000" font-family="Inter" font-size="13" lengthAdjust="spacing" textLength="34.2012" x="866.7" y="530.0563">gRPC</text></g><!--link gw to rep--><g class="link" data-entity-1="ent0005" data-entity-2="ent0009" data-link-type="dependency" data-source-line="56" id="lnk27"><path d="M926.43,485.2094 C927.01,525.3794 928.32,594.5594 931.03,653.8794 C931.64,667.2294 932.58,670.5194 933.03,683.8794 C933.72,704.7594 946.52,714.9294 933.03,730.8794 C906.97,761.6594 793.59,753.0394 754.03,760.8794 C733.49,764.9494 716.3146,768.6467 695.7246,773.3467" fill="none" id="gw-to-rep" style="stroke:#06007C;stroke-width:1;"/><polygon fill="#06007C" points="690.85,774.4594,700.5145,776.3562,695.7246,773.3467,698.7341,768.5568,690.85,774.4594" style="stroke:#06007C;stroke-width:1;stroke-linejoin:miter;stroke-miterlimit:10;"/><text fill="#000000" font-family="Inter" font-size="13" lengthAdjust="spacing" textLength="34.2012" x="932.03" y="623.9963">gRPC</text></g><!--link gw to ana--><g class="link" data-entity-1="ent0005" data-entity-2="ent0010" data-link-type="dependency" data-source-line="57" id="lnk28"><path d="M863.12,468.4094 C812.8,483.4594 741.57,508.3194 685.03,541.9894 C665.21,553.7894 649.2459,566.8284 633.5759,581.4484" fill="none" id="gw-to-ana" style="stroke:#06007C;stroke-width:1;"/><polygon fill="#06007C" points="629.92,584.8594,639.2294,581.6444,633.5759,581.4484,633.7719,575.795,629.92,584.8594" style="stroke:#06007C;stroke-width:1;stroke-linejoin:miter;stroke-miterlimit:10;"/><text fill="#000000" font-family="Inter" font-size="13" lengthAdjust="spacing" textLength="34.2012" x="729.41" y="530.0563">gRPC</text></g><!--link gw to notif--><g class="link" data-entity-1="ent0005" data-entity-2="ent0011" data-link-type="dependency" data-source-line="58" id="lnk29"><path d="M973.82,485.2694 C1000.18,504.7794 1029.3,528.1394 1038.03,541.9894 C1114.94,664.0194 1093.89,715.8794 1104.03,859.7694 C1105.03,873.9594 1112.15,880.0894 1104.03,891.7694 C1082.78,922.3094 1049.8843,937.0226 1015.2343,945.2626" fill="none" id="gw-to-notif" style="stroke:#06007C;stroke-width:1;"/><polygon fill="#06007C" points="1010.37,946.4194,1020.0512,948.2287,1015.2343,945.2626,1018.2004,940.4457,1010.37,946.4194" style="stroke:#06007C;stroke-width:1;stroke-linejoin:miter;stroke-miterlimit:10;"/><text fill="#000000" font-family="Inter" font-size="13" lengthAdjust="spacing" textLength="34.2012" x="1100.05" y="711.9463">gRPC</text></g><!--link cat to auth--><g class="link" data-entity-1="ent0008" data-entity-2="ent0007" data-link-type="dependency" data-source-line="60" id="lnk30"><path d="M801.23,654.2894 C818.01,677.9494 842.76,709.0894 870.03,730.8794 C884.76,742.6494 897.5956,750.7693 914.5456,759.5993" fill="none" id="cat-to-auth" style="stroke:#06007C;stroke-width:1;"/><polygon fill="#06007C" points="918.98,761.9094,912.8462,754.2038,914.5456,759.5993,909.1501,761.2988,918.98,761.9094" style="stroke:#06007C;stroke-width:1;stroke-linejoin:miter;stroke-miterlimit:10;"/><text fill="#000000" font-family="Inter" font-size="13" lengthAdjust="spacing" textLength="34.2012" x="923.633" y="696.9463">gRPC</text><text fill="#000000" font-family="Inter" font-size="13" lengthAdjust="spacing" textLength="116.3081" x="882.5796" y="712.0791">resolver docentes</text><text fill="#000000" font-family="Inter" font-size="13" lengthAdjust="spacing" textLength="139.4072" x="871.03" y="727.2119">y correos de inscritos</text></g><!--link cat to notif--><g class="link" data-entity-1="ent0008" data-entity-2="ent0011" data-link-type="dependency" data-source-line="61" id="lnk31"><path d="M770.52,654.2694 C761.53,697.3494 752.04,772.9794 779.03,829.7694 C797.68,869.0094 831.0694,897.3129 864.4394,918.6829" fill="none" id="cat-to-notif" style="stroke:#06007C;stroke-width:1;"/><polygon fill="#06007C" points="868.65,921.3794,863.2281,913.1573,864.4394,918.6829,858.9138,919.8942,868.65,921.3794" style="stroke:#06007C;stroke-width:1;stroke-linejoin:miter;stroke-miterlimit:10;"/><text fill="#000000" font-family="Inter" font-size="13" lengthAdjust="spacing" textLength="34.2012" x="823.5559" y="792.3863">gRPC</text><text fill="#000000" font-family="Inter" font-size="13" lengthAdjust="spacing" textLength="121.2529" x="780.03" y="807.5191">avisar nueva clase</text></g><!--link auth to notif--><g class="link" data-entity-1="ent0007" data-entity-2="ent0011" data-link-type="dependency" data-source-line="62" id="lnk32"><path d="M974.86,830.1394 C969.54,839.5094 964.18,849.8394 960.03,859.7694 C951.73,879.6294 946.3071,897.9973 941.6871,916.5673" fill="none" id="auth-to-notif" style="stroke:#06007C;stroke-width:1;"/><polygon fill="#06007C" points="940.48,921.4194,946.5345,913.6513,941.6871,916.5673,938.7712,911.7199,940.48,921.4194" style="stroke:#06007C;stroke-width:1;stroke-linejoin:miter;stroke-miterlimit:10;"/><text fill="#000000" font-family="Inter" font-size="13" lengthAdjust="spacing" textLength="34.2012" x="1012.9887" y="872.8363">gRPC</text><text fill="#000000" font-family="Inter" font-size="13" lengthAdjust="spacing" textLength="138.1187" x="961.03" y="887.9691">correo de bienvenida</text></g><!--link ana to rep--><g class="link" data-entity-1="ent0010" data-entity-2="ent0009" data-link-type="dependency" data-source-line="63" id="lnk33"><path d="M599.18,654.3694 C601.11,685.0094 603.6338,724.8594 605.5738,755.4794" fill="none" id="ana-to-rep" style="stroke:#06007C;stroke-width:1;"/><polygon fill="#06007C" points="605.89,760.4694,609.3129,751.2345,605.5738,755.4794,601.3289,751.7403,605.89,760.4694" style="stroke:#06007C;stroke-width:1;stroke-linejoin:miter;stroke-miterlimit:10;"/><text fill="#000000" font-family="Inter" font-size="13" lengthAdjust="spacing" textLength="34.2012" x="653.6344" y="704.4463">gRPC</text><text fill="#000000" font-family="Inter" font-size="13" lengthAdjust="spacing" textLength="131.79" x="604.84" y="719.5791">sincronizar m&#233;tricas</text></g><!--link auth to pgauth--><g class="link" data-entity-1="ent0007" data-entity-2="ent0016" data-link-type="dependency" data-source-line="66" id="lnk34"><path d="M942.75,830.1594 C909.82,853.0394 868.38,885.5994 839.03,921.7694 C790.07,982.0894 757.6052,1065.0548 744.5652,1101.9748" fill="none" id="auth-to-pgauth" style="stroke:#06007C;stroke-width:1;"/><polygon fill="#06007C" points="742.9,1106.6894,749.669,1099.5353,744.5652,1101.9748,742.1256,1096.871,742.9,1106.6894" style="stroke:#06007C;stroke-width:1;stroke-linejoin:miter;stroke-miterlimit:10;"/></g><!--link cat to pgcat--><g class="link" data-entity-1="ent0008" data-entity-2="ent0017" data-link-type="dependency" data-source-line="67" id="lnk35"><path d="M702.04,647.3594 C695.61,649.5694 689.21,651.7694 683.03,653.8794 C643.12,667.4794 629.43,662.5994 593.03,683.8794 C466.06,758.0894 415.76,784.4794 363.03,921.7694 C348.22,960.3094 342.13,979.0494 363.03,1014.6594 C390.94,1062.2194 443.1619,1088.9841 488.5119,1104.8941" fill="none" id="cat-to-pgcat" style="stroke:#06007C;stroke-width:1;"/><polygon fill="#06007C" points="493.23,1106.5494,486.0616,1099.7955,488.5119,1104.8941,483.4133,1107.3444,493.23,1106.5494" style="stroke:#06007C;stroke-width:1;stroke-linejoin:miter;stroke-miterlimit:10;"/></g><!--link notif to pgnotif--><g class="link" data-entity-1="ent0011" data-entity-2="ent0018" data-link-type="dependency" data-source-line="68" id="lnk36"><path d="M932.83,990.9894 C932.62,1026.0394 932.3311,1074.4695 932.1611,1101.7595" fill="none" id="notif-to-pgnotif" style="stroke:#06007C;stroke-width:1;"/><polygon fill="#06007C" points="932.13,1106.7594,936.186,1097.7845,932.1611,1101.7595,928.1861,1097.7346,932.13,1106.7594" style="stroke:#06007C;stroke-width:1;stroke-linejoin:miter;stroke-miterlimit:10;"/></g><!--link rep to mongo--><g class="link" data-entity-1="ent0009" data-entity-2="ent0019" data-link-type="dependency" data-source-line="69" id="lnk37"><path d="M571.76,830.0194 C541.47,858.1694 502.3331,894.5362 473.1531,921.6462" fill="none" id="rep-to-mongo" style="stroke:#06007C;stroke-width:1;"/><polygon fill="#06007C" points="469.49,925.0494,478.8061,921.854,473.1531,921.6462,473.361,915.9931,469.49,925.0494" style="stroke:#06007C;stroke-width:1;stroke-linejoin:miter;stroke-miterlimit:10;"/></g><!--link ana to mysql--><g class="link" data-entity-1="ent0010" data-entity-2="ent0020" data-link-type="dependency" data-source-line="70" id="lnk38"><path d="M527.7,620.3194 C463.71,623.4594 368.76,636.6994 302.03,683.8794 C274.08,703.6394 257.2798,734.2568 246.6698,759.6168" fill="none" id="ana-to-mysql" style="stroke:#06007C;stroke-width:1;"/><polygon fill="#06007C" points="244.74,764.2294,251.9037,757.4706,246.6698,759.6168,244.5236,754.3829,244.74,764.2294" style="stroke:#06007C;stroke-width:1;stroke-linejoin:miter;stroke-miterlimit:10;"/></g><!--link ana to redis--><g class="link" data-entity-1="ent0010" data-entity-2="ent0021" data-link-type="dependency" data-source-line="71" id="lnk39"><path d="M528,622.0594 C419.39,625.9794 215.25,639.2394 160.03,683.8794 C135.85,703.4194 126.7199,733.7522 122.6499,759.1922" fill="none" id="ana-to-redis" style="stroke:#06007C;stroke-width:1;"/><polygon fill="#06007C" points="121.86,764.1294,127.2316,755.8743,122.6499,759.1922,119.332,754.6105,121.86,764.1294" style="stroke:#06007C;stroke-width:1;stroke-linejoin:miter;stroke-miterlimit:10;"/><text fill="#000000" font-family="Inter" font-size="13" lengthAdjust="spacing" textLength="93.228" x="161.03" y="711.9463">cach&#233; con TTL</text></g><!--link notif to smtp--><g class="link" data-entity-1="ent0011" data-entity-2="ent0014" data-link-type="dependency" data-source-line="73" id="lnk40"><path d="M976.54,990.9894 C1017.52,1022.7994 1074.0605,1066.6832 1111.1705,1095.4932" fill="none" id="notif-to-smtp" style="stroke:#06007C;stroke-width:1;"/><polygon fill="#06007C" points="1115.12,1098.5594,1110.4638,1089.8807,1111.1705,1095.4932,1105.5579,1096.1999,1115.12,1098.5594" style="stroke:#06007C;stroke-width:1;stroke-linejoin:miter;stroke-miterlimit:10;"/><text fill="#000000" font-family="Inter" font-size="13" lengthAdjust="spacing" textLength="35.2485" x="1035.08" y="1035.7263">SMTP</text></g><?plantuml-src fLRDRXit4BxlKqpLGsmqTkGqjbm13U38bkiWDbHBQL5qWu3cZjQ4TyajoPMzAGha8V82FURGKmy5UgpU94_I6N8LhUqKA133C6JocvcFyysF7i2td_6JF82VpClfmGW-l7q7XqhaLfG2CeIHAIkZKNjqiF63SZwS7g8JrfgYC9jaUY1zBGhrHcHc24hBecuGf92No_TmZfbo3q4Rh-QApXGvSz20GxjGcR7ihIICSTlawRFUy8M_n1AXAeJIYRjIkXBq2f2h5qnzKo1Ob5xelC0Ev4B8gzoQMcSZKn2dByUZyVvut45aE1TruST6-pD1GKue8RPpVq3Pk6wD-tlz_c3qAGRFZCtG_XSi4rvS28UtK3lVxEtkF-cWAk8gyjkWmM2mHw34Aqylx2ZvKR2EZ4aYf2UhtajN2wjCgZUqM61EwjdD7WW7DOcJ96qWw8qAnOOz-3K1-7biAGUeirIV8pc2hoY8nrGFTtS6NxzYypacltNC0zF0PlctLj90LMjlc1HvjI8JhUE3oGaS2u_NeadrqKrbqJduvoyuCncxt-_lzuFx_FgM-rCbhGdLHBNbGXnlbx_FEP9YbRG1Hsc2_7moQaE9sbzkHHjoVOREFvzog5bJuLHQLNb-Jx-_-pX4P3YRIHAeCFd_ieof80isj5XPazNIK_MlhOzDYzq9M085RbeKZLVIhO6JnbyQpM76mddAKslt9BBJWkrM7NOxHZHjyRi17u2tKdYYvrRGKomnh6se5r6PnhJPulOKmINQLEjSwPkeH-GThXatNRNqz7GsIVMfK4MbF3o2uv8-1gmhVSMXLwKElObnFhSu_Vu5xEo5wglo6BOnjHFoDIV_TNRnAbwjf6WlMqNMzst2s-jkJjmQjCh0ciMfqRavV0Q3LA-qachvfmw4IhxiWXjckvzgbchv1sab8gvnlnGTN1Xzx3AEmbuKcSuIcdGVthsbNvYjIbKRwt7BrHOspe-ciyqMa70lmjRMK-wgEOPF-JKCWK6FlflD9jDKF_znHcqufNwXTrAhcoiLmDlRJwCwX6SedDFWewBO8AbHb4hdB3LfXZJ6Fy69IWAt3F-53UwUZwI80HDXCO1yyztgZ98DTyyefVVEA7Vtpe8kgxCaUheRXmMYTgPIXCp8CD1ItT28jHQf_UazIZjgH6zSnqFNC-csKBI-GDUu420B4Yk98Uv3erzsUq53S85QPIA9tE--BDMETXzDHrg45ihbUs-fChfYJz0w6iYe9KdIfd8Tk2tkDUbOpP5F_3yMRWpA9x4ortHY1NRfSGKELxjOKdNCPY-IZazkI09mnuPZseygl_HWvZnd0SweI6XiKvR23W2yYHDL55BeDzpsjOQoEu8XKs75bepV9i1H0NaSwx2WRmcP02o0IxQXIru0jSHGpY127hSJsYui0xQCBeptfcHAiNk0ld1WWPON5d-p87KgCWbf7TAjK_5R1pqR7yAzUKg837DUF1IGKk9ehvDWeQixiVy5?></g></svg>